<?xml version="1.0" standalone="no"?>
<!DOCTYPE svg PUBLIC "-//W3C//DTD SVG 1.1//EN" "http://www.w3.org/Graphics/SVG/1.1/DTD/svg11.dtd" >
<svg xmlns="http://www.w3.org/2000/svg" xmlns:xlink="http://www.w3.org/1999/xlink" version="1.1">
<metadata>
Created by FontForge 20160405 at Thu May 12 05:53:14 2016
 By www-data
Created with the help of MyScriptFont.com
Copyright belongs to the Creator.
</metadata>
<defs>
<font id="MyScriptFont" horiz-adv-x="9" >
  <font-face 
    font-family="MyScriptFont"
    font-weight="500"
    font-stretch="normal"
    units-per-em="1000"
    panose-1="3 0 6 3 0 0 0 0 0 0"
    ascent="800"
    descent="-200"
    x-height="530"
    cap-height="741.5"
    bbox="9.09677 -33.7234 655 792"
    underline-thickness="50"
    underline-position="-200"
    unicode-range="U+0020-20AC"
  />
<missing-glyph horiz-adv-x="364" 
d="M33 0v666h265v-666h-265zM66 33h199v600h-199v-600z" />
    <glyph glyph-name=".notdef" horiz-adv-x="364" 
d="M33 0v666h265v-666h-265zM66 33h199v600h-199v-600z" />
    <glyph glyph-name=".null" horiz-adv-x="0" 
 />
    <glyph glyph-name="nonmarkingreturn" horiz-adv-x="333" 
 />
    <glyph glyph-name="space" unicode=" " horiz-adv-x="420" 
 />
    <glyph glyph-name="exclam" unicode="!" horiz-adv-x="152" 
d="M101 767q3 9 19 9.5t21 -8.5q6 -9 -5 -86t-27 -140q-41 -161 -48 -168q-3 -3 -10 1q-10 6 -9 34t12 62q33 105 39 211q6 78 8 85zM16 310q4 6 27 6t36 -19.5t4 -40.5q-8 -16 -29 -19.5t-34 9.5q-8 8 -9.5 33t5.5 31z" />
    <glyph glyph-name="quotedbl" unicode="&#x22;" horiz-adv-x="229" 
d="M20 768q5 8 18 8q8 0 9.5 -14t-1.5 -68q-9 -127 -31 -119q-7 4 -5 92.5t10 100.5zM184 757q8 11 22 10q7 -2 10 -12.5t3 -37.5q1 -19 0.5 -38.5t-2 -36t-3 -29.5t-3.5 -20t-4 -7q-16 0 -26 77.5t3 93.5z" />
    <glyph glyph-name="numbersign" unicode="#" horiz-adv-x="446" 
d="M169 574q0 7 15.5 38t15.5 39q0 14 15 21q33 20 29 -10q-3 -18 -16 -49q-17 -38 -13 -49t34 -8q18 1 27.5 11t31.5 46q32 56 50 58q18 3 22 -10.5t-11 -29.5q-16 -17 -28.5 -42.5t-7.5 -29.5q6 -5 27 -5q23 0 27 -8q5 -8 24 -8q15 0 22.5 -7t1.5 -16q-4 -7 -58 8
q-37 11 -47 11t-21 -10q-10 -10 -31.5 -52t-21.5 -54q0 -7 71 -7q70 0 80 -12q10 -13 5 -18q-6 -6 -91 -6h-85l-13 -27q-23 -45 -58.5 -123.5t-35.5 -84.5q0 -7 -12 -7q-33 0 45 174q1 3 4 8l19 45q0 3 -27 3t-39.5 -19.5t-23.5 -76.5q-10 -58 -18 -57q-9 3 -10 35.5t6 57.5
q11 36 -2 44q-6 3 -15 -6t-23.5 -8.5t-14.5 9.5q0 12 16 24.5t35 14.5q18 2 25 10t26 53q20 45 16 54.5t-39 5.5q-42 -6 -55 -17q-5 -5 -10 -8t-9 -3.5t-7 0t-4.5 3.5t-1.5 7q0 15 25 29.5t57 18.5q34 5 55.5 16t21.5 24zM253 519q-4 10 -10 10q-10 -2 -28 -4
q-21 -3 -30 -14t-24 -57t-11 -52q4 -8 19 -6.5t30 12.5q16 11 37.5 55t16.5 56z" />
    <glyph glyph-name="dollar" unicode="$" horiz-adv-x="431" 
d="M209 773q15 15 22 17.5t13 -6.5t36 -28q31 -19 31 -35.5t-9.5 -20t-22.5 8.5q-10 9 -13 9t-9 -11q-7 -14 -13 -88q-4 -54 -2 -65t15 -16q27 -12 63.5 -35t56.5 -41q39 -35 44 -61.5t-20 -63.5q-16 -22 -47 -41.5t-51 -19.5q-12 0 -20 -7q-10 -8 -47 -19q-40 -11 -42 -26
q-8 -54 -18 -52q-7 2 -9 31q-1 18 -4.5 23t-14.5 3q-25 -4 -66.5 0t-53.5 12q-16 10 -17.5 32t11.5 41q15 22 24.5 17.5t8.5 -33.5l-2 -34l53 -2q52 -2 60 8q7 8 19 97t12 127q-1 17 -4 24t-11.5 13.5t-35.5 19.5q-79 39 -88 70t43 81q44 43 66 47q26 6 42 24zM206 719
q-9 9 -15 8.5t-15 -10.5q-10 -12 -20 -12q-11 0 -31 -26t-20 -41q0 -19 18 -34q15 -14 43.5 -24.5t34.5 -4.5q8 9 10.5 73t-5.5 71zM297 482q-21 14 -39 20q-11 3 -15 -1t-7 -24q-2 -9 -8 -43t-9 -50q-12 -68 -10.5 -88t17.5 -20q18 0 26 7q7 7 39 17q21 7 42.5 22.5
t35.5 34t14 32.5q0 16 -23 47t-35 31q-9 0 -28 15z" />
    <glyph glyph-name="percent" unicode="%" horiz-adv-x="443" 
d="M381 724q0 14 20 42q23 32 32 7q5 -12 -14 -50.5t-51.5 -88t-77 -106t-86.5 -101.5q-95 -100 -133 -185q-13 -31 -31 -53q-9 -12 -14 -14t-12 4q-6 6 -3 17t17 39q54 105 162 222q47 51 119 151.5t72 115.5zM100 658q20 20 31 21.5t21 -15.5q5 -10 3 -17t-13 -18
q-15 -17 -35 -19t-25 12q-4 12 18 36zM350 396q18 26 44.5 22t26.5 -34q0 -27 -30 -44t-48 1q-19 19 7 55z" />
    <glyph glyph-name="ampersand" unicode="&#x26;" 
 />
    <glyph glyph-name="parenleft" unicode="(" horiz-adv-x="287" 
d="M203 727q20 17 32 26t21 12.5t13.5 1t7.5 -10.5q5 -14 -18 -30q-27 -18 -61.5 -53t-64.5 -72t-53.5 -73.5t-29.5 -56.5q-11 -43 -0.5 -103t40.5 -120q16 -33 26 -49t22 -28t34 -27q48 -33 70 -39q26 -8 28 -20q-4 -6 -12 -7q-15 0 -58 16q-44 16 -89.5 61t-61.5 89
q-15 41 -26 55q-9 11 -12 92q-2 56 0.5 76t15.5 49q21 44 64 90l32 38t22.5 26.5t20.5 21.5t37 35z" />
    <glyph glyph-name="parenright" unicode=")" horiz-adv-x="313" 
d="M11 776q6 8 19 4q15 -6 35 -12q23 -7 73 -43.5t81 -68.5q103 -108 82 -260q-7 -53 -24 -89.5t-55 -80.5q-50 -58 -97.5 -91t-81.5 -33q-14 0 -11 12q2 10 13 14q45 14 97 64t89 111.5t41 107.5q5 59 -21.5 123.5t-79.5 120.5q-31 33 -75 61t-64 28q-9 0 -17 13t-4 19z
" />
    <glyph glyph-name="asterisk" unicode="*" horiz-adv-x="396" 
d="M135 695q0 31 9 39t41 6h33l-2 -42q-3 -41 5 -41q4 0 13.5 11t19.5 26q38 54 46 18q1 -12 -38 -61q-40 -50 -40 -53q0 -1 15 -3.5t36.5 -5t44 -5.5t41 -8t23.5 -11q15 -18 -8 -25t-37 5q-9 9 -34.5 12t-29.5 -4q-2 -4 8 -18t25 -29q22 -23 28 -33t1 -16q-10 -9 -31 12
q-81 79 -92 71q-5 -2 -3 -27t9 -51q6 -16 -8 -22q-15 -6 -25 5.5t-10 34.5q0 28 -12.5 30.5t-33.5 -20.5q-23 -26 -32 -20q-11 7 -8.5 15t22.5 33q24 30 24 38t-54 3q-33 -4 -45.5 -2.5t-18.5 8.5q-19 22 19 27q15 2 40 2q54 0 55 8t-31 32q-10 7 -25 18q-57 39 -58 49
q0 5 9 9q10 3 33.5 -8t34.5 -24q12 -13 26 -13q6 0 9 2.5t4.5 9t1.5 18.5z" />
    <glyph glyph-name="plus" unicode="+" horiz-adv-x="594" 
d="M307 708q12 15 20 9t6 -29q-5 -64 -4 -120t8 -62q9 -9 117 4q77 10 94.5 10.5t27 -9t9.5 -13.5t-11 -12q-12 -9 -40 -11.5t-119 -3.5q-51 0 -61 -2.5t-9 -13.5q4 -36 3 -116t-5 -87q-6 -10 -17 4q-10 15 -10 104v38t-2 26.5t-2.5 20.5t-7.5 11.5t-10.5 7.5t-17.5 1
t-22.5 -0.5t-31.5 -4.5q-145 -19 -180 -20q-20 -1 -26 2t-6 13q0 11 11 14t56 6q206 15 212 27q5 7 7 100q0 93 11 106z" />
    <glyph glyph-name="comma" unicode="," horiz-adv-x="182" 
d="M86 309q15 16 38 13q17 -2 23.5 -9.5t15.5 -36.5q16 -46 6.5 -84t-46.5 -76t-46 -38q-7 0 -27 -16q-31 -24 -39 -13q-1 2 -1 4q0 8 48 45q63 48 75.5 83t-25.5 53q-27 13 -33 34.5t11 40.5z" />
    <glyph glyph-name="hyphen" unicode="-" horiz-adv-x="312" 
d="M44 452q34 5 136.5 0.5t112.5 -12.5q14 -11 9.5 -19.5t-21.5 -3.5q-23 5 -148 5q-116 1 -122 9q-1 1 -1 4q3 11 34 17z" />
    <glyph glyph-name="period" unicode="." horiz-adv-x="89" 
d="M40 279q11 14 18.5 12t14.5 -20q18 -46 -11 -73q-12 -12 -19 -13.5t-17 3.5q-39 22 14 91z" />
    <glyph glyph-name="slash" unicode="/" horiz-adv-x="335" 
d="M301 759q5 6 8.5 6t10.5 -7q9 -8 3 -27.5t-43 -105.5q-10 -21 -75 -118q-67 -103 -97 -165q-24 -51 -43.5 -115t-19.5 -90q0 -16 -10.5 -18.5t-21.5 10.5q-16 19 38.5 154.5t111.5 218.5q16 24 55 80q32 49 54 107q20 59 29 70z" />
    <glyph glyph-name="zero" unicode="0" horiz-adv-x="378" 
d="M231 689q7 9 37.5 7t52.5 -13q24 -12 38 -33.5t8 -36.5q-1 -4 -3 -5.5t-6.5 0t-10.5 6.5t-16 15q-32 28 -40 28q-15 0 -4 -14q5 -6 15 -13q20 -13 37 -58q12 -32 13.5 -50.5t-4.5 -74.5q-7 -64 -28.5 -125t-49.5 -98q-9 -13 -29 -27t-41 -23t-34 -9q-11 0 -30.5 9.5
t-39.5 24t-33 28.5q-30 33 -41 65.5t-12 86.5q-1 61 10.5 92t57.5 92q22 29 49.5 56.5t51 44.5t35.5 17q13 0 17 8zM294 591q-11 15 -22.5 19t-48.5 6q-39 2 -50 -1t-26 -19q-22 -24 -46 -56.5t-24 -37.5t-14 -22q-9 -9 -11.5 -26.5t-1.5 -61.5q0 -47 4 -65.5t17 -42.5
q19 -32 44 -52t51 -24q16 -3 27 2.5t33 26.5q34 33 53 74q32 68 36.5 156.5t-21.5 123.5z" />
    <glyph glyph-name="one" unicode="1" horiz-adv-x="291" 
d="M181 720q15 30 31 0q9 -16 1 -26q-9 -11 -17 -97q-12 -134 -29 -212q-12 -55 -5.5 -64.5t50.5 -2.5q31 5 42.5 4.5t18.5 -9.5q8 -7 8.5 -12t-5.5 -12q-10 -13 -17 -13q-6 0 -45 -25q-44 -31 -61 -38.5t-41 -7.5q-18 0 -22 2.5t-1 11.5q15 34 5 44.5t-45 -2.5
q-26 -9 -36 -5q-11 8 9 24q15 12 29 12t40 11.5t26 17.5l24 123q38 189 16 189q-9 0 -26 -19.5t-27 -19.5q-31 0 28 66q41 45 49 60zM189 273q0 7 -5.5 9.5t-13 -0.5t-13.5 -10t-5.5 -10t7.5 -6q12 -5 21 0.5t9 16.5z" />
    <glyph glyph-name="two" unicode="2" horiz-adv-x="385" 
d="M192 706q80 10 108 -14q16 -14 24 -49t5 -74q-6 -70 -122 -214q-74 -95 -74 -112q0 -8 106 -6.5t114 9.5q10 10 19.5 0.5t-13.5 -33.5q-16 -16 -27.5 -20t-47.5 -4q-53 0 -62 9t-82 -4.5t-104 -29.5q-15 -7 -22.5 4.5t0.5 31.5q7 21 26 21q40 0 182 207q56 81 70.5 121.5
t-0.5 78.5q-19 50 -72.5 52t-104.5 -45q-21 -19 -33 -15q-28 10 4 39q40 36 103 46z" />
    <glyph glyph-name="three" unicode="3" horiz-adv-x="374" 
d="M319 675q29 3 36.5 0t9.5 -19q1 -17 -34 -64.5t-70 -73.5q-30 -23 -30 -27.5t34 -13.5q78 -21 84 -103q2 -31 -1.5 -44.5t-22.5 -41.5q-20 -29 -40 -42.5t-95 -50.5q-16 -6 -86 -6q-49 0 -62 3t-21 16q-13 18 -11 53t15 35q12 0 14 -24q4 -31 20.5 -41t61.5 -10
q54 0 59 8q4 8 19 8q38 0 83 54q18 21 23.5 34.5t5.5 35.5t-5 33.5t-20 25.5q-16 14 -28 18.5t-39 4.5q-69 0 -116 -33q-15 -10 -26.5 -6.5t-11.5 19.5q0 5 11 15.5t25 19.5t20 9q9 0 42.5 18t58.5 36q21 16 51 54.5t30 49.5t-140 6q-89 -3 -115 -1.5t-29 9.5q-4 13 9 25
t22 3t117 -10t117 7q6 7 35 11z" />
    <glyph glyph-name="four" unicode="4" horiz-adv-x="397" 
d="M326 648q12 32 33 2q8 -12 14 -29q15 -38 14.5 -52t-18.5 -33q-23 -24 -33.5 -62t-19.5 -126q-10 -104 0 -130t1.5 -30.5t-27.5 17.5q-17 21 -18.5 42.5t9.5 112.5q11 86 8 92q-4 5 -54 -15q-79 -33 -158 -39q-42 -4 -56.5 4.5t-8.5 34.5q4 20 23.5 55.5t31.5 45.5
q12 11 12 19q0 4 9.5 19.5t22 32.5t24 31t15.5 16q3 1 8 -3t8 -11q5 -10 2 -17.5t-19 -24.5q-23 -24 -50 -62t-43 -69.5t-11 -36.5q6 -7 50 -4.5t71 10.5q61 19 120 61q10 7 14.5 14t7.5 20t5 38q6 59 13 77z" />
    <glyph glyph-name="five" unicode="5" horiz-adv-x="408" 
d="M147 691q21 9 78 9.5t98 -7.5q14 -3 28 -7.5t24.5 -9.5t17 -10t6.5 -9v-1q0 -6 -5 -6t-42 10h-1h-1h-1l-1 1h-1h-1q-46 12 -108 12t-81 -13q-36 -23 -36 -103q0 -37 10.5 -42t45.5 13q27 14 79 16q35 2 48 -1t33 -18q68 -51 60 -142q-16 -163 -165 -209
q-37 -12 -56 -13.5t-60 4.5q-106 16 -106 63q0 31 18 43q8 6 15 0q5 -6 5 -10t-6 -12q-21 -26 21 -45q35 -15 90 -15q34 0 53.5 4.5t49.5 20.5q27 14 44.5 29.5t29 35.5t20.5 50q17 58 5 106.5t-48 65.5q-32 15 -61 11.5t-80 -29.5q-63 -32 -69 -27q-7 3 -5 93
q2 77 12.5 103t42.5 39z" />
    <glyph glyph-name="six" unicode="6" horiz-adv-x="386" 
d="M268 741q41 11 54.5 9t33.5 -20q26 -22 20.5 -31.5t-35.5 6.5q-19 9 -31.5 10t-41.5 -4q-43 -8 -60 -23q-15 -15 -25.5 -15t-54.5 -54.5t-57 -84.5q-16 -34 -22 -75l-5 -42l27 15q18 9 42 27q16 13 93.5 11.5t92.5 -14.5q18 -17 20.5 -47.5t-9 -63.5t-36 -66t-55.5 -54
q-13 -9 -23.5 -13t-25 -5.5t-39.5 -1.5q-48 0 -65.5 10.5t-40.5 52.5q-17 33 -14.5 103t23.5 135q20 60 36.5 87.5t56.5 65.5q62 62 141 82zM265 425q-13 11 -26.5 14.5t-40.5 2.5q-27 0 -46.5 -4t-39 -13.5t-45.5 -28.5q-13 -9 -20.5 -15.5t-11 -11.5t-3.5 -11.5t1.5 -11.5
t4 -17t4.5 -23q6 -29 29 -50q14 -15 26 -19t39 -4q43 0 64 14q26 17 51.5 56t29.5 68q3 23 0.5 32t-16.5 22z" />
    <glyph glyph-name="seven" unicode="7" horiz-adv-x="341" 
d="M72 342q0 3 1 6.5t3.5 8.5t4 8.5l4.5 10.5q8 15 11.5 23.5t6.5 20.5t-3 17.5t-19 5.5q-25 0 -44 -8q-19 -7 -25 1q-5 7 1.5 14.5t24 14t44.5 12.5q38 8 61.5 23.5t24.5 32.5q0 9 15 24q20 23 42.5 70.5t15.5 54.5q-9 9 -24 0q-18 -9 -107 -9q-92 0 -98 14q-2 6 5 18
q4 6 14 6.5t39 -5.5q41 -9 105.5 -3t92.5 20q21 12 41 14q16 0 21.5 -12.5t-6.5 -22.5q-10 -7 -42.5 -54t-60 -93t-25.5 -49q4 -8 38 -8q41 0 41 -10q-1 -5 -5 -11q-9 -10 -52 -10q-28 0 -38.5 -4.5t-24.5 -22.5q-21 -26 -37 -69q-4 -13 -18 -51t-20 -55q-18 -49 -31 -68
t-24 -12q-9 5 -4 26t27 70q24 49 24 61z" />
    <glyph glyph-name="eight" unicode="8" horiz-adv-x="421" 
d="M210 727q24 7 86 9q41 0 55.5 -3t26.5 -14q18 -17 18 -33q0 -19 -21.5 -48t-45.5 -44q-22 -14 -26.5 -28.5t10.5 -27.5q21 -18 -8 -23q-7 -1 -17 -1q-27 0 -27 -6t53 -33q49 -27 69 -52.5t26 -69.5q4 -33 1 -42t-23 -28q-32 -30 -89.5 -53.5t-103.5 -25.5q-65 -2 -83 3.5
t-52 40.5q-26 26 -35.5 41t-12.5 36q-5 34 11.5 65t66.5 82l48 49l-29 32q-19 21 -23 31.5t-1 30.5q7 42 33.5 65.5t92.5 46.5zM353 695q-14 14 -70 15t-73 -13q-8 -6 -34 -12q-7 -1 -15.5 -5.5t-16.5 -11t-14 -12.5q-22 -27 -17.5 -47t36.5 -42l34 -23l36 16q39 17 85.5 52
t53.5 52q7 20 -5 31zM226 486q-32 13 -48 10.5t-45 -24.5q-32 -24 -59 -67.5t-27 -70.5q0 -25 25 -53t59 -41q25 -10 39 -10t56 9q32 7 66 23.5t57.5 36.5t27.5 37q8 31 -38.5 76.5t-112.5 73.5z" />
    <glyph glyph-name="nine" unicode="9" horiz-adv-x="273" 
d="M86 752q23 6 52.5 3t39.5 -12q10 -8 48 -10h38l-3 -92q-3 -91 -9 -103q-3 -5 -9 -75t-11.5 -153.5t-6.5 -124.5q-1 -28 -4 -34t-19 -8q-22 -3 -26 12t7 63q12 50 18 132q2 33 2 52.5t-6 24t-15.5 -1.5t-28.5 -25q-28 -27 -64 -34t-52 13q-23 28 -25 216l-2 101l25 25
q25 25 51 31zM160 721q-58 22 -103 -25q-12 -13 -16 -22t-5.5 -24t-0.5 -56q0 -65 9.5 -123t21.5 -68q21 -18 61.5 16.5t65.5 92.5q12 25 15.5 46.5t3.5 58.5q0 52 -10 72t-42 32z" />
    <glyph glyph-name="colon" unicode=":" horiz-adv-x="132" 
d="M84 562q18 7 24 7t11 -9q10 -16 -3 -43t-30 -27q-16 0 -22.5 15.5t-0.5 33t21 23.5zM16 318q14 15 37 -2.5t19 -40.5q-2 -18 -16.5 -21t-30.5 11q-11 10 -14 27.5t5 25.5z" />
    <glyph glyph-name="semicolon" unicode=";" horiz-adv-x="208" 
d="M129 543q17 19 31 19q11 0 20 -9t14 -24t5 -31q0 -19 -3.5 -25.5t-15.5 -9.5q-23 -5 -41.5 8.5t-21 33t11.5 38.5zM74 275q10 9 16.5 7.5t25.5 -18.5q23 -18 40 -21q16 -3 18.5 -21.5t-13.5 -22.5q-15 -4 -25 -25q-10 -23 -47.5 -59t-57.5 -41q-22 -6 -21 2q1 9 27 29
q34 26 46 59t-7 49q-10 9 -11 30t9 32z" />
    <glyph glyph-name="less" unicode="&#x3c;" horiz-adv-x="368" 
d="M298 658q31 22 44 20.5t14 -16t-12 -18.5q-11 -4 -86 -54q-43 -31 -112 -73q-42 -23 -42 -30q0 -6 16.5 -15.5t106.5 -55.5q46 -24 71 -37.5t37.5 -23t17.5 -17.5q12 -20 -2 -18q-22 1 -143 69q-25 14 -33 14q-6 0 -45 24q-38 24 -63 24q-26 0 -44 15q-11 9 -12.5 14
t5.5 13q9 12 49 24q25 7 90.5 47t142.5 94z" />
    <glyph glyph-name="equal" unicode="=" horiz-adv-x="353" 
d="M182 633q10 8 75 7q43 -2 53.5 -5t10.5 -14t-13.5 -13.5t-78.5 -3.5q-44 -1 -83.5 -5t-67 -10t-37.5 -14q-11 -7 -23 -2q-22 8 11 27q45 25 96 25q44 0 57 8zM98 470q26 6 66.5 11t81 6.5t69.5 -3.5t29 -17t-31 -10q-167 13 -238 -28q-44 -27 -56 -10q-3 4 10 15
t33.5 21.5t35.5 14.5z" />
    <glyph glyph-name="greater" unicode="&#x3e;" horiz-adv-x="396" 
d="M20 692q6 14 14 11t32 -27q31 -32 62 -51q40 -28 116 -56t123 -32q20 -3 20 -15q0 -10 -20 -20q-21 -10 -68 -30.5t-62.5 -28.5t-47 -25t-56.5 -36.5t-57 -46.5q-17 -15 -23 -26t-7 -30q-2 -30 -16 -29q-15 1 -19 30q-1 6 -1 14q0 30 68 86t157 98q61 30 61 36t-24.5 15
t-40.5 9q-17 0 -62 25q-2 1 -36 19q-15 7 -39.5 24.5t-45 34.5t-25.5 25q-7 12 -3 26z" />
    <glyph glyph-name="question" unicode="?" horiz-adv-x="303" 
d="M63 737q13 9 32 12t68 3q59 0 73.5 -3t31.5 -20q34 -31 22.5 -65.5t-75.5 -92.5q-57 -50 -57 -58q0 -9 -27 -42q-33 -41 -32.5 -60.5t35.5 -24.5q8 -1 14 -5.5t6 -9.5q0 -7 -11 -9t-44 -1q-46 2 -58.5 9t-3.5 27q12 27 62.5 93.5t91.5 108.5q31 34 42.5 51t11.5 30
q0 15 -4.5 23t-15.5 13t-33 9q-21 2 -39.5 1t-30 -6t-11.5 -13q0 -6 -5.5 -7.5t-20.5 1.5q-29 6 -34 14t12 22zM23 256q15 16 29 18.5t38 -6.5q16 -6 19.5 -20t-8.5 -26q-10 -10 -43.5 -9t-42.5 12q-6 7 -4.5 13t12.5 18z" />
    <glyph glyph-name="at" unicode="@" horiz-adv-x="614" 
d="M288 748q22 9 51.5 9t92.5 -9q34 -5 38 -12q5 -7 19 -7q16 0 48 -30.5t48 -61.5q12 -26 16 -45.5t4 -65.5q-1 -24 -2.5 -43t-5 -38t-10 -38.5t-15 -40.5t-21.5 -48q-20 -41 -30 -52t-50 -33q-38 -20 -87 -20q-39 0 -54 7.5t-15 25.5q0 39 -61 -4q-32 -24 -71.5 -33
t-54.5 4q-18 15 -8.5 84t42.5 156q21 56 61 94l40 40l50 -4q52 -4 64 -15q14 -12 28 -16q13 -6 13 -25q0 -17 -23.5 -83.5t-37.5 -87.5q-12 -19 -8 -58q5 -38 12 -46t37 -8q60 0 118 81q31 44 48 124t5 130q-16 63 -75.5 106.5t-130.5 43.5q-65 0 -113 -36.5t-113 -134.5
q-49 -75 -66.5 -121.5t-23.5 -117.5q-3 -46 0 -63t21 -54q17 -35 40.5 -65t49 -48t47.5 -22q29 -3 87 0.5t67 10.5q10 8 34.5 11t28.5 -3q2 -3 -4 -8t-16 -10l-20 -10t-19 -8.5t-10 -4.5q-19 -9 -100.5 -7t-101.5 12q-29 14 -62.5 54t-53.5 83q-17 35 -21 55.5t-4 61.5
q0 64 19.5 119t65.5 124q46 67 64 97q14 25 56.5 59t72.5 45zM338 542q-29 15 -50 10t-51 -35q-67 -68 -75 -203q-4 -58 10.5 -67t61.5 24q37 25 56 48.5t26 54.5q8 35 31 82q19 41 17.5 57.5t-26.5 28.5z" />
    <glyph glyph-name="A" unicode="A" horiz-adv-x="406" 
d="M258 683q13 13 32 13.5t23 -13.5q4 -12 19 -47q14 -31 29.5 -94t16.5 -91q2 -32 13 -123q2 -19 3.5 -33t2 -26t0.5 -20t-1 -14.5t-2.5 -10.5t-4 -6.5t-6 -3.5t-8.5 -1q-6 0 -13 7.5t-10.5 18t-1.5 17.5q4 9 -5 84l-9 74l-28 7q-28 8 -85 2q-37 -4 -49 -8t-18 -15
q-66 -119 -72 -141q-15 -52 -48 -80q-18 -17 -25 -5q-6 7 22 81q45 120 45 135q0 6 -21 13q-29 12 -10 23q10 6 33 9q63 8 74 58q6 24 29.5 71t42.5 69q19 23 19 29q0 7 13 21zM322 509q-1 5 -3.5 24t-4.5 26.5t-5.5 21t-8 23t-11.5 17.5l-17 21l-17 -18q-16 -18 -45 -75
t-30 -76q-2 -14 6.5 -16t56.5 -1q61 2 74 10.5t5 42.5z" />
    <glyph glyph-name="B" unicode="B" horiz-adv-x="445" 
d="M249 737q9 4 17 4t18.5 -2t17.5 -2t20 -9t23 -21q48 -52 11 -112q-15 -26 -15 -35q0 -11 -21 -31q-14 -13 -15 -17t9 -11q14 -11 24 -11q18 0 79 -50q19 -16 19 -50q0 -24 -4.5 -40.5t-15 -32t-30.5 -35.5q-73 -69 -207 -69q-69 0 -93 -12q-23 -13 -39 -4
q-16 8 -28.5 32.5t-7.5 37.5q6 13 20 77q19 81 52 196q8 33 24 66.5t28 46.5q8 8 7 14t-9 6q-15 -1 -32 -19.5t-24 -41.5q-11 -30 -26 -30q-10 0 -13.5 6t-4.5 23q-7 64 96 100q50 17 77 18q28 0 43 8zM303 680q-19 22 -40 27t-53 -4q-49 -12 -50 -17q0 -2 6 -8
q9 -11 -2 -34q-7 -14 -16 -39t-17 -53.5t-13 -53.5q-4 -20 -26 -89.5t-26 -98.5q-4 -28 -1.5 -36t18.5 -18q25 -17 103.5 -15.5t115.5 19.5q61 29 81 83t-19 86q-23 20 -57 25t-93 -3q-67 -9 -75 0q-5 5 1 14.5t18.5 17t23.5 7.5q33 0 74 32t57 68q13 31 11 51t-21 39z" />
    <glyph glyph-name="C" unicode="C" horiz-adv-x="463" 
d="M251 716q24 4 75.5 -1.5t67.5 -13.5q12 -7 27.5 -23t25 -32t6.5 -21q-11 -19 -40 7q-16 14 -32 25.5t-29.5 17.5t-22.5 6q-19 0 -28 9q-8 8 -43.5 -1.5t-64.5 -28.5q-39 -25 -71 -70t-50.5 -98.5t-18.5 -102.5q0 -29 13.5 -73t27.5 -62q23 -29 40 -35t69 -3q70 4 111 13
q34 7 61.5 10.5t42.5 3.5t15 -4t-7.5 -10t-21 -11t-26.5 -8q-3 0 -9.5 -1.5t-15.5 -4t-18 -4.5t-21 -5t-22 -5q-64 -17 -118 -17q-36 0 -49.5 4.5t-37.5 24.5q-36 29 -48 50t-21 72q-13 67 -3.5 118.5t45.5 113.5q46 76 89 112.5t102 47.5z" />
    <glyph glyph-name="D" unicode="D" horiz-adv-x="544" 
d="M101 689q6 9 128 7.5t157 -10.5q38 -10 82 -53q67 -63 67 -119t-65 -131q-20 -21 -79.5 -72t-66.5 -51q-3 0 -42 -22q-56 -33 -121.5 -41.5t-87.5 13.5l-16 16l16 59q16 56 29.5 137.5t15.5 137.5q1 56 6 77t-12 20q-24 -3 -64 -39q-17 -15 -27.5 -12.5t-10.5 19.5
q0 15 25 35.5t42 20.5q20 0 24 8zM323 669q-47 9 -71 10t-52 -4q-15 -2 -23.5 -8t-12 -16.5t-3.5 -28.5q0 -30 -7.5 -87.5t-19 -118.5t-22.5 -100q-8 -29 -5 -60l2 -31l55 2q34 2 51 7t38 19q33 23 42 23q24 0 94 65t92 107q22 43 8.5 87.5t-61.5 85.5q-19 16 -32 24
t-29 13.5t-44 10.5z" />
    <glyph glyph-name="E" unicode="E" horiz-adv-x="391" 
d="M128 706q11 6 48 4q49 -6 117 -10q89 -6 89 -20q0 -3 -5 -7q-7 -6 -106 2q-32 2 -48.5 3t-32 -0.5t-21.5 -4t-11 -10t-5.5 -16.5t-0.5 -26q0 -31 -7 -40q-7 -7 -24.5 -73t-13.5 -70q3 -3 43.5 1t84 12t54.5 13q24 12 34 2q12 -8 12 -16q0 -11 -36.5 -21t-78.5 -10
q-59 0 -90 -12t-47 -40q-18 -32 -26.5 -72.5t-0.5 -60.5q9 -23 36.5 -38t61.5 -15q44 0 101.5 16.5t67.5 31.5q4 8 17 8q10 0 6 -8q-1 -5 -7 -14q-21 -33 -60 -45.5t-117 -12.5q-67 0 -95 8.5t-45 34.5q-25 38 0 104q77 207 90 340q5 54 16 62z" />
    <glyph glyph-name="F" unicode="F" horiz-adv-x="358" 
d="M64 717q14 13 45 8q23 -4 134 -10q101 -4 106 -11q1 -2 -0.5 -4.5t-5 -5.5t-7.5 -5q-17 -10 -97 0q-78 9 -103.5 6t-34.5 -22q-10 -21 -12 -103l-3 -83l100 3q107 2 110 -12q0 -7 -10 -18q-8 -7 -15.5 -8t-20.5 4q-26 10 -86 6.5t-74 -15.5q-14 -13 -27 -74
q-24 -113 -37 -113q-14 0 -15.5 20t8.5 68q32 151 32 269q0 53 2.5 72.5t10.5 27.5z" />
    <glyph glyph-name="G" unicode="G" horiz-adv-x="510" 
d="M239 752q36 7 96.5 2.5t89.5 -17.5q24 -11 50 -33t26 -32q0 -26 -54 13q-40 28 -56 28t-21 8q-4 8 -78 8q-54 0 -68.5 -4t-43.5 -27q-26 -20 -41.5 -42.5t-47.5 -85.5q-31 -64 -39.5 -148t11.5 -132q27 -63 114 -64q49 -1 95 19.5t75 55t30 70.5q1 28 -15.5 30t-63.5 -22
q-40 -19 -53.5 -19t-13.5 19q0 20 45 45.5t80 26.5q18 0 45 12q35 18 43 6t5 -75q-4 -72 5 -121q9 -46 -1 -56q-13 -12 -27 18q-7 15 -10 35q-4 29 -13 34t-23 -14q-12 -17 -34.5 -35t-50 -32.5t-51.5 -21.5q-65 -19 -120 -3.5t-87 60.5q-28 40 -27 97.5t30 174.5
q9 34 34 81t51 77q22 26 47 40t67 24z" />
    <glyph glyph-name="H" unicode="H" horiz-adv-x="472" 
d="M118 734q8 10 14.5 9.5t15.5 -10.5q6 -7 4 -21.5t-14 -48.5q-22 -62 -30 -119q-10 -57 -3 -69t45 0q34 10 119 15q88 7 97 17q12 12 19 47q33 139 41 150q4 6 14 7q20 3 22.5 -12.5t-11.5 -51.5q-14 -33 -26 -87q-6 -30 -5.5 -41t10.5 -25q10 -16 9 -21.5t-20 -20.5
q-7 -6 -11.5 -11.5t-8.5 -12t-7.5 -17t-6.5 -24t-8 -35.5q-15 -79 -14 -123q3 -48 -13 -48q-7 0 -17 9q-12 10 -7.5 64.5t24.5 128.5q19 72 12 79q-5 5 -66.5 2.5t-141.5 -10.5q-31 -3 -47.5 -12t-25 -28t-13.5 -56q-8 -60 -15 -86q-8 -35 -8 -57q0 -16 -5.5 -22.5t-13.5 -2
t-13 19.5q-8 19 11 112q7 31 28 137q32 163 44 213.5t22 61.5z" />
    <glyph glyph-name="I" unicode="I" horiz-adv-x="396" 
d="M320 737q23 7 45 4.5t22 -12.5q0 -13 -51 -17q-23 -2 -36.5 -5.5t-22 -12t-11 -20t-2.5 -32.5q0 -37 -11 -83q-16 -71 -31 -166t-10 -106q3 -9 16 -10t60 2q43 2 57 1t14 -8q0 -11 -9 -16q-9 -6 -145 -9q-135 -5 -149 -11q-8 -5 -19 -6.5t-19 0t-8 5.5q0 25 76 25
q20 0 32 1.5t21.5 4t14 8.5t7.5 14t5 22q3 27 16 85q22 106 31.5 193.5t1.5 98.5q-8 9 -25.5 9.5t-26.5 -8.5q-10 -10 -26 -2q-6 4 -4 10q8 14 39 23.5t71 9.5q57 2 77 8z" />
    <glyph glyph-name="J" unicode="J" horiz-adv-x="555" 
d="M421 737q10 4 41 5t58 -2t26 -7q-2 -8 -16 -11q-71 -14 -77 -30q-8 -22 -23.5 -112.5t-24.5 -168.5q-3 -24 -9.5 -53.5t-15 -56.5t-16.5 -42q-11 -23 -38.5 -47.5t-56.5 -38.5q-32 -16 -90 -16t-93 15q-20 10 -36.5 26.5t-26 37t-12.5 43.5t2 46q14 62 51 62
q21 0 21.5 -8t-18.5 -22q-51 -38 -14 -111q12 -23 27.5 -37.5t37 -22.5t52.5 -11q30 -2 42.5 0.5t30.5 14.5q38 26 61 53t36.5 61t20.5 83q7 58 26 177q15 100 9 118.5t-54 15.5q-44 -2 -44 6q0 11 19.5 18t49.5 7q38 0 54 8z" />
    <glyph glyph-name="K" unicode="K" horiz-adv-x="414" 
d="M91 751q23 27 25 -24q1 -42 -13 -129q-14 -83 -14 -103q0 -17 5 -19.5t36 0.5q28 3 40.5 10.5t38.5 36.5q40 45 57 77q14 30 29 44.5t24 8.5q11 -7 7 -28t-21 -41l-12.5 -15l-15 -18t-10.5 -12q-5 -7 -44 -50q-30 -32 -30 -34t27 -35q25 -30 51 -82q29 -57 52.5 -68
t61.5 16q13 10 19 4q4 -5 -3 -14t-22 -20.5t-33 -20.5q-34 -17 -48.5 -8.5t-41.5 59.5q-28 52 -40 66q-14 17 -18 29q-11 30 -45.5 33t-66.5 -23q-15 -12 -20.5 -26t-11.5 -55q-5 -41 -10 -51.5t-17 -12.5q-11 -2 -14 2.5t-3 23.5q0 31 13 78q11 44 15 81q6 64 16 136.5
t20.5 124t16.5 59.5z" />
    <glyph glyph-name="L" unicode="L" horiz-adv-x="396" 
d="M116 723q6 9 13.5 4.5t13.5 -20.5q8 -21 -4 -67q-12 -42 -12 -65q0 -22 -25 -122q-19 -76 -19.5 -98t17.5 -28q29 -9 93 -40q43 -20 82 -6t67 59q9 15 15.5 23.5t11.5 12.5t8.5 2.5t7.5 -7.5q10 -18 -16.5 -58t-60.5 -57q-23 -12 -63 -11t-68 15q-29 15 -66 21
q-22 3 -30.5 0t-24.5 -20q-23 -24 -32 -24q-12 0 -14 15.5t8 37.5q8 20 15 46.5t16.5 71t11.5 51.5q12 44 19 83q31 174 36 181z" />
    <glyph glyph-name="M" unicode="M" horiz-adv-x="481" 
d="M99 656q22 32 42 -11q10 -21 22 -64q58 -212 62 -249q5 -57 19.5 -68t45.5 19q14 12 25.5 30t26 50t36.5 88q18 48 23.5 72.5t4.5 58.5q0 74 20 73q14 0 30 -42q9 -24 10.5 -62t-2.5 -166q-6 -194 3 -216q11 -26 0.5 -32.5t-28.5 15.5q-17 19 -18 51.5t10 152.5
q11 105 7 113q-7 12 -23 -13q-7 -12 -12 -27q-10 -32 -28.5 -71t-38.5 -71.5t-35 -48.5q-20 -21 -31 -27t-26 -5q-16 2 -24 13t-15.5 39.5t-18.5 93.5q-11 73 -30.5 135.5t-31.5 64.5q-19 4 -35 -64t-22 -172q-5 -84 -11 -115t-19 -39q-17 -10 -24 1t1 35q8 21 17 117
q19 221 40 264q15 29 15 44q0 16 13 33z" />
    <glyph glyph-name="N" unicode="N" horiz-adv-x="452" 
d="M85 648q3 9 13 9q30 0 30 -50q0 -30 9 -46q18 -36 82 -225q37 -107 71 -107q24 0 67 70t57 133q7 29 6 46.5t-10 58.5q-16 59 -35 82q-19 22 -13.5 30.5t20.5 8t21 -9.5q10 -15 22.5 -64t15.5 -90q3 -36 0 -56.5t-16 -58.5q-23 -64 -44 -101t-48 -61q-28 -25 -47.5 -26.5
t-39.5 20.5q-24 26 -36.5 50.5t-25.5 74.5q-25 91 -71 193q-16 33 -28 -28q-1 -5 -2 -11q-6 -33 -27 -146q-16 -91 -21 -107t-16 -16q-5 0 -7 4.5t-1.5 19.5t3.5 36.5t10 62.5q7 42 16 99q5 36 20 103.5t25 101.5z" />
    <glyph glyph-name="O" unicode="O" horiz-adv-x="493" 
d="M258 678q32 8 66.5 9.5t66 -3.5t51.5 -21t20 -41t13 -60q13 -37 8 -103t-25 -107q-20 -47 -28 -72q-9 -26 -36 -55.5t-60 -53t-70 -39t-66 -15.5q-30 0 -51.5 9.5t-51.5 35.5q-85 73 -85 217q0 106 43 165q18 25 76.5 69t73.5 44q11 0 17 6q5 6 38 15zM373 646
q-26 14 -68.5 10.5t-78.5 -21.5q-124 -64 -159 -136q-14 -29 -17.5 -50t-3.5 -73.5t3.5 -73.5t17.5 -50q28 -58 65.5 -80.5t93.5 -15.5q59 8 106 46.5t76 102.5q19 43 26 60.5t11.5 32t8.5 36.5q14 69 -8.5 127.5t-72.5 84.5z" />
    <glyph glyph-name="P" unicode="P" horiz-adv-x="519" 
d="M170 713q3 7 33 6t113 -10q21 -3 36 -6t23 -5.5t24.5 -8l31.5 -10.5q19 -5 28 -10t15.5 -13.5t16.5 -26.5q25 -51 16 -96t-55 -89q-52 -51 -136 -72q-11 -2 -39 -8.5t-38 -8.5q-49 -12 -49 2q-1 3 1 9q4 12 67 21q70 10 104 26.5t66 53.5q31 37 39 78q5 29 3 40t-16 32
q-15 24 -39 40t-43 16q-13 0 -21 8q-10 10 -106 9t-119 -11q-27 -12 -49 -35t-28 -45q-4 -18 -15 -25.5t-20 1.5q-8 8 -1 36.5t20 40.5q15 15 33 27t36 19t32 7q30 0 36 8zM186 600q11 16 21 14.5t12 -18.5q2 -13 -21.5 -87t-35.5 -94q-15 -24 -31 -81.5t-16 -90.5
q-1 -49 -15 -46q-6 1 -15 16q-28 52 60 264q28 69 28 87.5t13 35.5z" />
    <glyph glyph-name="Q" unicode="Q" horiz-adv-x="478" 
d="M209 645q38 11 61 11t72 -11q32 -6 52.5 -14.5t34 -21.5t24.5 -34l16 -30l-18 -15q-11 -9 -13 -15.5t3 -20.5q8 -22 8 -73q0 -43 -15.5 -76.5t-69.5 -102.5l-34 -45l27 -50q30 -52 44 -64q20 -20 16 -33q-3 -3 -6 -4q-8 0 -45 42t-48 63q-12 22 -18 22q-4 0 -19.5 -5.5
t-32.5 -12.5t-26 -12q-17 -10 -66 -10q-31 0 -46 4.5t-38 19.5q-35 26 -39 32q-4 7 -16 78q-19 115 16 230q16 53 61 91t115 57zM338 623q-32 9 -53.5 8.5t-57.5 -9.5q-62 -16 -103 -47.5t-54 -73.5q-2 -8 -6 -20.5t-9 -28t-7 -23.5q-25 -79 11 -197q11 -35 18.5 -43
t40.5 -19q30 -11 42.5 -12t35.5 7q82 26 85 53q3 15 -22 78q-28 69 -10 74q5 2 15 0q14 -2 23 -42q19 -84 35 -84q18 0 54.5 62.5t45.5 107.5q8 42 -17.5 83t-59.5 41q-23 0 -23 8q0 6 16.5 7.5t37 -2t31.5 -10.5q26 -18 25 -1q-1 10 -10 27q-13 23 -29 34t-55 22z" />
    <glyph glyph-name="R" unicode="R" horiz-adv-x="529" 
d="M180 712q52 12 125 -4.5t94 -45.5q12 -18 16 -51.5t-2 -65.5q-4 -21 -13.5 -36.5t-31.5 -37.5q-41 -39 -51.5 -46.5t-6.5 -13.5t31 -28q83 -68 155 -137q30 -28 22.5 -35.5t-27.5 6.5q-77 60 -173 142q-48 40 -61.5 46.5t-43.5 3.5q-23 -2 -37.5 -9.5t-23 -21.5
t-12.5 -37q-12 -63 -27.5 -113.5t-23.5 -50.5q-13 0 -14 24t9 65q11 38 37 193q6 31 15 98q11 81 35 74q4 -2 9 -6q8 -8 8 -17.5t-8 -40.5q-12 -47 -12 -79v-34l58 -1q49 -1 77 9t51 37q19 23 24.5 44t1.5 55q-6 59 -61.5 80t-154.5 2q-43 -8 -70 -27.5t-45 -54.5
q-16 -35 -25 -35q-5 0 -10 12q-7 20 -1 36t31 41q34 34 69 43q53 13 67 17z" />
    <glyph glyph-name="S" unicode="S" horiz-adv-x="396" 
d="M160 706q32 4 57 1t67 -15q37 -11 49 -22.5t1 -24.5q-18 -23 -44 5q-53 59 -142 28q-16 -6 -30 -16t-22 -21.5t-8 -22.5q0 -9 21 -24.5t55 -30.5q65 -30 132 -67q38 -21 63 -51t28 -58q3 -42 -17.5 -76.5t-62.5 -54.5q-20 -10 -114.5 -11.5t-100.5 7.5q-4 8 -34 8
q-27 0 -38.5 7.5t-8.5 21.5q3 16 18 17t30 -12q18 -17 92 -25q52 -6 70 -4.5t49 14.5q35 13 51 34t25 63q3 16 -1 26.5t-20 29.5q-22 25 -61.5 51t-79.5 42q-88 37 -125 68l-25 21l13 27q12 24 43 41.5t70 23.5z" />
    <glyph glyph-name="T" unicode="T" horiz-adv-x="581" 
d="M520 718q29 20 47 -7q13 -21 -16 -29q-25 -7 -105 -12q-199 -13 -206 3q-1 4 5 10q9 9 102 7q130 -1 173 28zM20 678q8 6 60 9t101 1.5t49 -6.5q0 -7 -28.5 -12t-73.5 -5q-54 0 -69 -12t-29 -12q-16 0 -19.5 13.5t9.5 23.5zM271 626q5 10 9 11.5t12 -4.5q7 -7 8 -19
t-2 -43q-6 -49 -18 -84q-12 -31 -14 -155q-1 -122 -10 -126q-10 -3 -18 18q-20 54 -11 165q3 30 7 57q13 69 21 91q7 18 7 45.5t9 43.5z" />
    <glyph glyph-name="U" unicode="U" horiz-adv-x="426" 
d="M58 691q10 22 23 28t17 -6.5t-3 -35.5q-12 -29 -27 -113.5t-18 -136.5l-4 -67l30 -43q19 -27 32.5 -37.5t36.5 -17.5q17 -6 31 -6.5t20.5 1.5t20 8t21.5 9q89 36 104 60q25 38 35 216q4 61 2 79t-14 38q-19 31 -9 40q9 9 28 -10q24 -22 30.5 -50.5t-1.5 -75.5
q-10 -62 -17 -146q-7 -91 -15 -108q-5 -11 -18.5 -22.5t-28 -19t-23.5 -7.5q-17 0 -47 -15q-59 -28 -97 -31t-72 18q-124 79 -68 298q13 52 15 85q3 38 16 68z" />
    <glyph glyph-name="V" unicode="V" horiz-adv-x="483" 
d="M18 679q9 10 20 10q10 0 18 -21t4 -35q-4 -10 8 -65.5t12 -57.5q0 -12 17 -50q24 -53 37 -120q10 -50 32 -18q17 25 49 104q26 67 36.5 111.5t10.5 89.5q0 34 11.5 42.5t37.5 -6.5q24 -14 90 -14t71 -7q14 -22 -63 -27l-34 -1l-76 -1l-7 -31q-34 -166 -101 -300
q-9 -19 -15.5 -31t-13 -22.5t-11 -14t-9 -6t-8 2.5t-7 11t-8 19.5t-8.5 28.5t-9 38q-26 106 -47 160q-31 82 -41 140t4 71z" />
    <glyph glyph-name="W" unicode="W" horiz-adv-x="664" 
d="M580 676q19 15 47 12t28 -20q0 -11 -22 -11q-24 0 -56 -24q-19 -13 -26.5 -24t-10.5 -29q-2 -10 -11.5 -49.5t-12.5 -69.5q-4 -30 -13.5 -47t-14.5 -35q-8 -31 -36 -91q-18 -37 -28 -49t-27 -18q-50 -17 -67 14q-7 16 -19 93q-20 110 -25 113q-2 2 -6 0q-9 -4 -26 -54
q-15 -47 -45.5 -98.5t-53.5 -68t-51 -16t-36 16.5q-10 15 -17 89q-19 210 -29 236q-8 17 -11 75q-2 39 0 47.5t13 8.5q10 0 14 -7.5t8 -32.5q25 -173 26 -186q11 -123 20 -168.5t23 -45.5q7 0 21.5 13t29.5 34t24 40q25 49 29 55q12 21 28.5 100.5t13.5 102.5q-5 32 8 43
q18 14 27.5 4t9.5 -42q0 -39 7 -62q6 -19 17 -97q10 -78 16 -88q6 -9 14 -40q6 -27 22.5 -30t32.5 20q25 36 58.5 152t33.5 171q1 38 8 48.5t27 6.5q22 -4 38 8z" />
    <glyph glyph-name="X" unicode="X" horiz-adv-x="398" 
d="M320 640q49 56 63 46q3 -3 6 -9q3 -12 -42 -58q-46 -45 -102 -112q-46 -55 -52 -78t14 -66q17 -38 26 -76q9 -39 16 -56q6 -18 -2 -23t-27.5 13.5t-19.5 30.5q0 13 -16.5 68t-22.5 63q-5 4 -32.5 -27.5t-53 -76t-25.5 -69.5q0 -19 -6 -23q-3 -4 -11.5 1t-15.5 14t-7 15
q0 13 28.5 63t58.5 92q40 52 40 77q0 20 -18 79t-34 93q-11 24 -8 38.5t18 11.5q11 -1 21 -26.5t34 -107.5q16 -57 25 -59q7 -2 20 12q18 22 60.5 74t64.5 76z" />
    <glyph glyph-name="Y" unicode="Y" horiz-adv-x="297" 
d="M231 692q4 11 19.5 12t23.5 -9q18 -22 12.5 -89t-28.5 -115q-14 -28 -42 -54t-44 -26q-14 0 -22 -11q-8 -10 -17.5 -74t-11.5 -120q-1 -55 -11 -55q-5 0 -13 7q-9 7 -10.5 30t2.5 106l4 126l-26 27q-26 27 -41.5 71t-15.5 92q0 32 3 46.5t12 23.5q15 16 22 12q5 -3 1 -71
q-4 -55 3.5 -84t32.5 -56q8 -9 19.5 -15.5t18.5 -6.5q19 0 23 -8q14 -23 51 12q35 35 51 85q26 83 -4 114q-17 18 -12 30z" />
    <glyph glyph-name="Z" unicode="Z" horiz-adv-x="361" 
d="M297 659q4 7 27.5 6t27.5 -8q6 -9 -22 -39q-29 -34 -54 -70q-27 -40 -33 -42q-6 0 -6 -11q0 -6 7 -7.5t25 0.5q22 3 27 1.5t3 -11.5q-3 -15 -34 -21q-61 -11 -79 -23t-53 -64q-38 -56 -47 -77.5t2 -29.5q27 -22 104 -24.5t115 16.5q41 21 41 -7t-134 -27q-153 1 -175 -2
q-24 -3 -28 12.5t15 38.5q18 22 73 105q49 79 69 96q22 17 64.5 75t39.5 64q-5 9 -99 7.5t-116 -9.5q-25 -9 -36.5 -1.5t-1.5 25.5q7 11 47 12t102 -7q30 -4 76.5 4t52.5 18z" />
    <glyph glyph-name="bracketleft" unicode="[" 
 />
    <glyph glyph-name="bracketright" unicode="]" 
 />
    <glyph glyph-name="a" unicode="a" horiz-adv-x="455" 
d="M180 564q32 12 72 6.5t79 -26.5l41 -22l-1 -49q-1 -34 -4.5 -43t-20.5 -19q-23 -13 -33 -44q-8 -26 -9.5 -61t4.5 -50q5 -13 35.5 -24t63.5 -11q39 0 39 -8t-69 -8q-47 0 -60 3t-28 19q-20 20 -30 36q-5 8 -14.5 4t-41.5 -29q-62 -49 -105 -53.5t-73 34.5
q-14 18 -15 42.5t12 73.5q21 87 73 159q18 26 29 37.5t22.5 18.5t33.5 14zM293 530q-27 16 -66 16q-17 0 -27.5 -2t-19.5 -7.5t-22 -16.5q-52 -46 -89 -147q-17 -48 -19.5 -83t9.5 -51.5t33.5 -18t54 17.5t70.5 56q40 38 60.5 73.5t32.5 84.5q9 41 6.5 53t-23.5 25z" />
    <glyph glyph-name="b" unicode="b" horiz-adv-x="437" 
d="M160 711q5 15 18 5q6 -6 9 -15q1 -12 -5 -36t-31 -105q-19 -63 -19 -91v-29l30 29q31 29 43 29q13 0 18 8q4 8 62 8h58l36 -37q34 -35 43.5 -61.5t2.5 -64.5q-14 -72 -98 -119q-101 -56 -208 -46q-43 4 -51.5 1.5t-14.5 -17.5q-6 -14 -20 -19.5t-22 3.5q-10 8 37 146
q19 58 49 179q30 127 63 232zM321 483q-30 15 -32 15q-5 -3 -18 -5q-22 -6 -66.5 -39.5t-67.5 -61.5q-26 -31 -38.5 -59t-18.5 -66q-4 -27 -2 -33.5t17 -12.5q26 -10 92 -2.5t100 23.5q61 30 84.5 66.5t14.5 87.5q-7 35 -20.5 53t-44.5 34z" />
    <glyph glyph-name="c" unicode="c" horiz-adv-x="374" 
d="M171 578q34 19 60.5 22t57.5 -10q35 -14 60 -51t11 -51q-8 -8 -19.5 1.5t-16.5 27.5q-9 34 -61 42t-91 -18q-28 -19 -42 -37.5t-46 -78.5q-36 -66 -33 -104t46 -66q8 -6 15.5 -9.5t17.5 -5.5t22.5 -2.5t32.5 -0.5q43 0 69.5 7t75.5 31q2 1 3.5 -1.5t1.5 -6.5
q0 -8 -9 -18.5t-23 -19.5t-27 -12q-32 -8 -95.5 -10t-69.5 5q-9 9 -22 9t-46 34q-21 22 -27 34t-6 33q0 34 7 48q5 7 28 58q21 47 55.5 88t70.5 62z" />
    <glyph glyph-name="d" unicode="d" horiz-adv-x="459" 
d="M337 759q3 10 19.5 9t21.5 -12q4 -11 -5.5 -48t-25.5 -71q-24 -55 -44.5 -182t-9.5 -148q8 -13 37 -14.5t70 9.5q36 9 45 0q5 -6 4.5 -8.5t-6.5 -3.5q-6 -2 -39 -12q-26 -8 -87 -11q-36 -2 -49 1t-20 12q-7 11 -12 10.5t-20 -14.5q-10 -9 -57 -53q-21 -22 -33 -28t-33 -6
q-103 0 -78 194q9 70 23 105.5t44 64.5q24 24 36 29t48 5q50 2 76 -4q17 -5 24 -0.5t21 29.5q22 37 34 86q14 55 16 61zM206 552q-27 9 -37.5 8t-38.5 -16q-37 -21 -60 -80t-23 -134q0 -62 20 -85.5t57 -3.5q29 16 63 60t52 88t6 58q-6 7 5 35t11 29q0 21 -55 41z" />
    <glyph glyph-name="e" unicode="e" horiz-adv-x="469" 
d="M384 268q-7 0 -20.5 -12t-20.5 -12q-12 0 -44 -15q-32 -16 -73 -16.5t-54 14.5q-16 18 -31 52t-15 52q0 19 -20 37.5t-41 18.5q-15 0 -37 19q-15 11 -17.5 17.5t3.5 17.5q9 16 33 18t39 -11q13 -11 35 -16q14 -4 19 -1t10 17q10 27 28.5 53.5t42.5 49t49 36.5
q24 13 66 11.5t66 -16.5q22 -15 32.5 -44.5t5.5 -63.5q-4 -25 -11 -37.5t-27 -30.5q-42 -35 -94 -51.5t-90 -6.5q-29 8 -36 4q-11 -7 -7.5 -38.5t16.5 -49.5q12 -14 20 -16.5t33 0.5q19 4 32 7t19.5 6t21.5 10.5t28 12.5q44 19 71 33q15 7 23 10t13 3.5t6.5 -1.5t1.5 -8
q0 -7 -32.5 -30t-43.5 -23zM387 539q-10 15 -20 19t-39 4q-31 0 -43.5 -6t-46.5 -39q-37 -37 -54.5 -73t-3.5 -50q10 -10 40.5 -15t46.5 1q18 7 35 7q27 0 64.5 41t37.5 70q0 19 -17 41z" />
    <glyph glyph-name="f" unicode="f" horiz-adv-x="392" 
d="M231 760q24 19 47.5 23t56.5 -8q48 -17 48 -88q0 -42 -35 -83t-98 -72q-21 -12 -27.5 -20.5t-10.5 -29.5q-5 -32 1 -39q8 -8 69 -10q90 -6 80 -29q-1 -3 -4 -6q-7 -9 -20.5 -10t-21.5 6q-10 9 -52 11t-51 -5q-11 -8 -16 -68q-17 -254 -29 -266q-12 -13 -21 11
q-5 14 -5 31q2 44 11 152q11 124 5 138q-3 10 -15.5 11.5t-61.5 -3.5q-71 -4 -71 4q0 10 107 22q38 4 45 9q5 7 14 109q10 117 19.5 153t35.5 57zM331 729q-22 23 -44 23q-17 0 -24 -6.5t-25 -40.5q-13 -24 -19 -78.5t4 -59.5q10 -7 45 15t52 46q26 35 28.5 57.5t-17.5 43.5
z" />
    <glyph glyph-name="g" unicode="g" horiz-adv-x="465" 
d="M322 564q34 5 47 4t25 -9q16 -12 39 -15q18 -1 20.5 -7t1.5 -39q-3 -47 -15 -99t-18 -188q-5 -95 -8.5 -118t-18.5 -46q-31 -46 -71.5 -61t-105.5 -4q-57 9 -82 18q-41 17 -57 25.5t-25 18.5q-26 29 -39 91.5t4 76.5q18 15 22 -6v-35q-4 -120 154 -154q75 -16 109 -5
t62 62q11 20 14 40t3 73q-2 84 -7 90q-1 2 -5.5 0.5t-11.5 -6t-14 -11.5q-42 -36 -91.5 -45.5t-63.5 15.5q-8 16 -5 94t14 114q9 30 54 76.5t69 49.5zM377 521q-19 9 -30 8.5t-34 -10.5q-42 -18 -70.5 -78t-28.5 -129q0 -57 22.5 -65t72.5 32q85 65 94 151q4 42 -1.5 62
t-24.5 29z" />
    <glyph glyph-name="h" unicode="h" horiz-adv-x="414" 
d="M118 660q25 28 28 4q2 -17 -10 -52q-8 -25 -15.5 -79.5t-8 -93t5.5 -44.5q8 0 55 48q33 32 46 39.5t34 7.5q34 0 53.5 -16.5t19.5 -46.5q0 -26 -10.5 -68.5t-24.5 -77.5q-12 -29 -12.5 -59.5t11.5 -40.5t59 -4q57 6 56 -10q0 -7 -12 -15q-16 -12 -71 -11t-69 14
q-16 14 -14 55t20 95q21 57 22 105q1 30 -1.5 37.5t-14.5 9.5q-31 5 -91.5 -58t-78.5 -119q-8 -27 -20 -58q-11 -25 -11 -37q0 -11 -18 -23q-12 -8 -16.5 -8.5t-12.5 7.5t-7 15.5t12 30.5q18 35 18 45.5t11 34.5q12 27 20 150q14 186 47 223z" />
    <glyph glyph-name="i" unicode="i" horiz-adv-x="235" 
d="M129 662q4 12 16 10.5t25 -16.5q11 -12 10.5 -15.5t-11.5 -11.5q-21 -16 -35.5 -4.5t-4.5 37.5zM110 525q13 16 22 16t9 -16q0 -10 -36 -85q-45 -87 -55 -140.5t13 -82.5q19 -23 55 -20t80 33q22 15 27 5q6 -10 -21 -32t-44 -22q-19 0 -23 -8t-40 -8q-56 0 -77 46t1 121
q13 44 42 107.5t47 85.5z" />
    <glyph glyph-name="j" unicode="j" horiz-adv-x="399" 
d="M312 660q6 18 16 15.5t43 -29.5q15 -12 18 -18.5t-3 -15.5q-10 -17 -26.5 -16t-34.5 20q-14 15 -16.5 22.5t3.5 21.5zM281 525q9 17 21.5 11.5t12.5 -26.5q-4 -76 -15 -176.5t-24.5 -180t-21.5 -97.5q-30 -61 -94 -70t-115 40q-23 22 -29 33.5t-6 32.5q0 61 25 2
q10 -24 47 -55.5t56 -32.5q15 0 36.5 12.5t30.5 26.5q23 33 40.5 128t23.5 222q6 116 12 130z" />
    <glyph glyph-name="k" unicode="k" horiz-adv-x="318" 
d="M153 679q8 10 14 10q24 0 0 -51q-15 -34 -21 -77q-6 -42 -25 -98q-18 -57 -18 -69q0 -21 25 -12q13 4 27 16q17 12 61 58t57 64q8 10 22 8t14 -14q0 -10 -71.5 -80t-71.5 -77t14 -26q13 -17 20 -33q3 -9 28.5 -27t43 -33t5.5 -21q-30 -18 -100 57l-48 51l-35 -19
q-23 -12 -32 -23.5t-19 -41.5q-16 -46 -24 -47q-13 -2 -7 36q8 45 46 160q53 154 53 166q0 13 17 63t25 60z" />
    <glyph glyph-name="l" unicode="l" horiz-adv-x="148" 
d="M101 664q3 10 5.5 16.5t4.5 11.5t4.5 7.5t5.5 3.5t6 0q13 -3 12 -30q-2 -21 -25.5 -139.5t-32.5 -150.5q-7 -20 -20 -95q-17 -89 -36 -90q-4 0 -8 3q-12 7 -3 59.5t51 222.5q24 90 24 116q0 24 12 65z" />
    <glyph glyph-name="m" unicode="m" horiz-adv-x="550" 
d="M208 563q51 39 61 39q6 0 13.5 -7t15 -19.5t14.5 -27.5q10 -26 17 -26q8 0 41 38q26 27 33.5 30.5t25.5 -5.5q23 -11 48 -41.5t25 -47.5q0 -27 -11.5 -75.5t-24.5 -76.5q-20 -41 -20 -61t22.5 -37t48.5 -17t24 -9q-1 -6 -17 -10q-30 -8 -60 -4.5t-42 15.5q-16 16 -12 49
t30 108q19 56 19.5 87.5t-17.5 59.5q-14 22 -35.5 21.5t-36.5 -21.5q-23 -36 -44 -77t-26 -58q-5 -21 -20 -56t-33 -66t-29 -41q-26 -26 -28 -2q-1 27 27 75q7 11 13 23t13 29t13 29q16 31 21.5 93.5t-5.5 75.5q-13 16 -32 9t-51 -40q-82 -80 -104 -163q-15 -53 -23.5 -80
t-14.5 -39.5t-13 -15.5q-29 -15 -23 23q3 22 19 65q19 56 26 112q9 75 36 112q17 23 21 -7v-13q0 -20 6.5 -21.5t22.5 15.5q12 15 66 56z" />
    <glyph glyph-name="n" unicode="n" horiz-adv-x="364" 
d="M127 588q6 11 17 13t17 -7q5 -8 -8 -37q-22 -53 2 -42q14 7 45 39q39 40 53 40q12 0 32 -21q39 -41 -5 -146q-21 -55 -25 -91q-4 -39 7.5 -50.5t49.5 -7.5q46 5 43 -10q-2 -6 -11 -13q-11 -8 -52 -10t-58 4q-13 5 -13.5 62t11.5 82q38 75 35 122q-2 24 -5.5 29t-16.5 4
q-18 -2 -59 -48t-77 -103.5t-42 -88.5q-1 -3 -5 -23t-5 -27q-4 -17 -18 -28t-24 -5q-8 5 -2 28t30 87q26 70 35 115q10 48 20 59q5 5 9.5 15.5t7 20t6 21t6.5 17.5z" />
    <glyph glyph-name="o" unicode="o" horiz-adv-x="326" 
d="M78 556q23 22 35.5 26t64.5 4q30 0 40.5 -0.5t23 -4t18 -8t18.5 -17.5q63 -59 26 -112q-17 -23 -17 -46q0 -8 -2 -23.5t-5.5 -34.5t-7.5 -38t-8.5 -35t-7.5 -24q-15 -41 -72.5 -60.5t-98.5 1.5q-35 18 -51.5 60t-21.5 119q-3 52 -0.5 71t15.5 49q21 45 51 73zM232 534
q-12 13 -23.5 16.5t-38.5 3.5q-22 0 -32 -2.5t-19 -8.5t-26 -23q-21 -20 -29 -34.5t-12 -38.5q-6 -47 3.5 -108.5t27.5 -91.5q16 -24 24.5 -29t35.5 -5q49 0 71.5 30t36.5 115q11 61 6 108t-25 68z" />
    <glyph glyph-name="p" unicode="p" horiz-adv-x="394" 
d="M78 542q27 11 128 10q61 -1 88 -6t42.5 -18.5t32.5 -45.5t15.5 -74.5t-21.5 -84.5q-22 -44 -71 -69t-113 -25q-37 0 -53 -10t-22 -36q-6 -28 -13 -62q-9 -42 -16 -58.5t-17 -16.5q-15 0 -16.5 14.5t7.5 62.5q37 200 53 268q7 38 23 65t31 27q34 0 14 -43
q-17 -34 -23.5 -56t-13.5 -61q0 -2 -1 -6q-9 -56 -6 -65t31 -5h2q97 12 139 47.5t47 108.5q3 40 -0.5 51t-23.5 33q-15 16 -24 22t-22.5 8.5t-49.5 5.5q-84 7 -122 -8t-59 -62q-5 -13 -8 -19.5t-6.5 -9t-6 -1.5t-6.5 5q-11 11 -3 39q14 53 64 75z" />
    <glyph glyph-name="q" unicode="q" horiz-adv-x="423" 
d="M99 529q17 16 29 20.5t41 4.5q28 0 43.5 -4.5t36.5 -18.5l35 -24l18 17q13 13 27 11.5t20 -16.5q4 -12 -24 -88q-29 -77 -24 -85q3 -5 15.5 4t26 24.5t18.5 27.5q4 10 10 13.5t18 1.5q21 -2 24.5 -16t-15.5 -21t-65.5 -57.5t-56.5 -76.5q-12 -28 -20 -110
q-10 -101 -25 -139t-40 -29q-7 3 -7 14.5t7 49.5q11 64 21 136.5t8 75.5l-4.5 -3t-11.5 -9t-15 -14q-41 -40 -92 -54t-73 8q-16 16 -14 99.5t20 135.5q13 37 32 70.5t37 51.5zM227 491q-17 19 -28 25t-27 6q-36 0 -67 -42t-47 -109t-9 -133q4 -42 28 -44t78 36
q20 14 55.5 64.5t46.5 78.5q21 61 -30 118z" />
    <glyph glyph-name="r" unicode="r" horiz-adv-x="348" 
d="M206 520q27 9 54 5q20 -3 49.5 -21.5t29.5 -28.5q0 -16 -27 -5l-28 14q-33 17 -42.5 18.5t-26.5 -6.5q-124 -64 -146 -244q-8 -60 -15.5 -77.5t-24.5 -17.5t-19 12t9 49q13 44 14 159q0 73 3 95.5t13 33.5q28 31 26 -17q0 -8 -2 -18q-2 -22 -1.5 -34.5t8 -12.5t19.5 9.5
t34 30.5q47 46 73 56z" />
    <glyph glyph-name="s" unicode="s" horiz-adv-x="319" 
d="M144 509q33 5 50 3t32 -14q13 -10 16 -18t0 -24q-4 -19 -8 -26t-9.5 -2.5t-13.5 20.5q-14 30 -37 34t-48 -19q-16 -15 -20.5 -24.5t5 -23.5t31 -30t67.5 -45q153 -97 77 -153q-17 -11 -32.5 -14t-59.5 -2q-67 1 -76 8q-11 8 -35 14q-15 3 -31 16t-26 29t-14.5 33t2.5 27
q19 29 29 -15q10 -51 91 -74q54 -16 91.5 -8.5t37.5 34.5q0 14 -24.5 43t-44.5 40q-52 27 -74.5 42t-35.5 30q-16 19 -17.5 33t10.5 40q20 38 67 46z" />
    <glyph glyph-name="t" unicode="t" horiz-adv-x="269" 
d="M121 554q0 8 2 17t6 18t10 15t13 6q18 0 20.5 -10.5t-8.5 -36.5q-13 -32 -7.5 -43.5t34.5 -15.5q30 -5 41.5 -17t-1.5 -25q-8 -8 -14 -8t-21 9q-27 13 -43.5 10.5t-27.5 -21.5q-41 -80 -51 -165q-9 -77 20.5 -93.5t108.5 22.5q61 30 57 16q-2 -8 -31 -29
q-48 -33 -101 -43.5t-74 9.5q-22 23 -18 88.5t33 144.5q21 56 16 65q-5 8 -40 3q-37 -6 -35 2q2 9 48 18q37 8 50 21t13 43z" />
    <glyph glyph-name="u" unicode="u" horiz-adv-x="336" 
d="M292 513q11 17 23 17t12 -17t-33 -110q-3 -7 -7 -20q-33 -91 -36.5 -108t4.5 -27l3 -3q14 -15 40 -18q25 -2 24 -13.5t-26 -18.5q-16 -4 -28 -2t-30 12l-32 16l-30 -27q-91 -81 -144 -38q-12 10 -16 24.5t-5 61.5q-2 41 1.5 72t16.5 80q12 49 19.5 72t13.5 31.5t15 8.5
q12 0 15.5 -9t-4.5 -22q-7 -14 -23.5 -73t-24.5 -102q-6 -32 2.5 -72.5t22.5 -48.5q15 -8 34 -3q20 5 60 45.5t45 61.5q10 43 25 87.5t24 57.5q11 13 21.5 43.5t17.5 41.5z" />
    <glyph glyph-name="v" unicode="v" horiz-adv-x="310" 
d="M13 521q-5 8 -1.5 20.5t10.5 12.5t13 -6t9 -13.5t0 -12.5q-6 -9 7 -85q11 -63 23 -141q10 -63 21 -63q8 0 30 40.5t42 91.5q17 44 21 106q4 48 13 61t30 0q14 -10 44 -10q16 0 21.5 -2.5t3.5 -9.5q-3 -14 -18 -23q-40 -22 -53.5 -38t-21.5 -51q-6 -25 -10.5 -39t-7 -20.5
t-11.5 -24.5t-16 -34q-19 -43 -39.5 -70t-37 -33.5t-28.5 6.5q-16 21 -32 245q-7 87 -12 93z" />
    <glyph glyph-name="w" unicode="w" horiz-adv-x="529" 
d="M403 576q18 18 32.5 4t11.5 -47l-2 -31h37q38 0 38 -8q0 -7 -37 -27q-24 -14 -33.5 -25t-18.5 -39q-16 -44 -34 -69q-19 -25 -19 -32q0 -6 -30 -37q-45 -46 -77.5 -54.5t-62.5 18.5q-25 23 -33 23q-5 0 -39 -28q-36 -29 -58 -26q-15 2 -20.5 11t-14.5 43q-13 52 -15 100
q0 35 -7.5 83t-9.5 71q-2 32 0.5 38t16.5 6q15 0 18.5 -13t8.5 -90q11 -181 39 -198q10 -5 18 -0.5t27 25.5q18 20 24 33t6 34q1 36 13 74q11 37 16 61q6 24 25 44t32 16q8 -4 9.5 -12t-1.5 -32q-6 -38 -18.5 -82t-22.5 -58q-11 -20 -10.5 -43.5t12.5 -44t28 -20.5
q29 0 65 37t65 98q21 43 24 56.5t-4 45.5q-15 79 1 95z" />
    <glyph glyph-name="x" unicode="x" horiz-adv-x="334" 
d="M106 598q13 17 25 -11q6 -11 13 -34q11 -34 20 -41.5t21 5.5q21 19 62.5 48t49.5 29q12 0 22 -12t4 -20q-4 -8 -15 -8q-10 0 -31 -12.5t-41.5 -29t-35.5 -33.5t-15 -26t36 -93q46 -104 21 -107q-3 0 -7 1q-15 3 -33 50q-37 99 -53 99q-5 0 -30 -25t-50.5 -55t-33.5 -44
q-12 -23 -21 -18q-4 2 -4 10q0 48 110 162q10 12 8.5 31t-16.5 67q-10 34 -11 46.5t5 20.5z" />
    <glyph glyph-name="y" unicode="y" horiz-adv-x="378" 
d="M128 565q5 15 16.5 19.5t18.5 -5.5q3 -6 -8 -49q-10 -40 -10.5 -81.5t9.5 -61.5q11 -22 39.5 -23t49.5 21q22 23 29 44.5t7 67.5q0 89 38 89q27 0 31 -26.5t-14 -83.5q-13 -40 -11 -63t29 -141q17 -82 17 -122t-19 -60q-25 -25 -93 -53q-16 -9 -71 -4q-59 6 -87 27.5
t-58 83.5q-27 56 -30.5 77.5t10.5 45.5q12 26 40 32.5t43 -11.5q8 -10 4 -19t-18 -9q-15 0 -28.5 -15t-13.5 -32q1 -41 34.5 -82t75.5 -53q52 -14 95 -3t68 45l15 20l-22 114q-21 114 -24 117q-3 2 -27 -22q-28 -28 -68 -31.5t-62 20.5q-17 19 -24 57t1 68q10 34 10 58
q0 26 8 44z" />
    <glyph glyph-name="z" unicode="z" horiz-adv-x="363" 
d="M226 585q36 14 45.5 12t11.5 -22q4 -22 -20 -52q-12 -15 -24 -34.5t-23.5 -38t-24.5 -33.5q-24 -28 -29 -45.5t-25 -42.5q-22 -26 -13.5 -36.5t67.5 -29.5q41 -12 62.5 -7t55.5 36q42 37 45 22q2 -10 -18 -39q-25 -37 -53.5 -50t-72.5 -9q-48 6 -55 13q-10 10 -41.5 7
t-54.5 -15q-25 -15 -33.5 -12t-14.5 28q-5 21 6.5 38t30.5 17q8 0 18.5 7.5t21 21t18.5 30.5q12 27 38 60q97 132 53 132q-11 0 -31 -8q-34 -13 -49 -29q-16 -14 -22 -14.5t-19 9.5q-26 18 1 43q29 26 79 26q29 0 70 15z" />
    <glyph glyph-name="braceleft" unicode="{" horiz-adv-x="350" 
d="M151 640q0 -24 12 -68.5t12 -66.5q0 -20 -5.5 -31t-22.5 -26q-28 -27 -28 -46q0 -21 -19 -75q-20 -54 -25.5 -102.5t7.5 -58.5q14 -11 79 -4.5t83 21.5q9 7 23 3q21 -8 -7 -24q-12 -7 -31 -13l-35 -10.5t-34 -9.5q-67 -21 -93.5 -5t-26.5 77q0 24 2.5 43t8 43.5
t18.5 65.5q11 39 7 48.5t-33 21.5q-23 10 -30 22.5t3 25.5q9 10 32 11.5t28 -7.5t24 -8t27 12q20 23 -12 125l-15 47l20 35q15 26 39.5 47t67.5 43q29 14 64.5 13.5t45.5 -14.5q10 -16 0 -24t-27 1q-20 11 -57 -2t-68 -42q-22 -21 -28 -33t-6 -35z" />
    <glyph glyph-name="bar" unicode="|" 
 />
    <glyph glyph-name="braceright" unicode="}" horiz-adv-x="367" 
d="M85 782q16 10 73 10q34 0 49.5 -3.5t27.5 -13.5q22 -17 19.5 -42t-31.5 -85q-31 -63 -38.5 -88t0.5 -35q11 -13 35.5 -10t48.5 19q22 15 50.5 19t35.5 -7q12 -18 -20 -40.5t-69 -22.5q-21 0 -51 -22.5t-39 -43.5q-7 -15 -5.5 -28t12.5 -45q17 -47 16.5 -76.5t-18.5 -57.5
q-20 -28 -45 -40.5t-74 -17.5q-34 -3 -43 -2t-9 10q0 13 27 13q25 0 56 13t45 29q16 20 19 50t-9 55q-15 32 -14 73.5t17 59.5t16.5 26t-15.5 18q-36 23 29 150q35 70 35 84q0 15 -25 23t-64 4q-56 -5 -52 11q1 6 10 13z" />
    <glyph glyph-name="asciitilde" unicode="~" horiz-adv-x="386" 
d="M355 648q17 17 21 -20q1 -13 1 -34q0 -37 -4 -49t-21 -28t-30 -19.5t-59 -3.5q-66 0 -85 9q-72 34 -93 42t-26 3q-6 -6 -9 -73q-4 -75 -24 -109q-7 -10 -13 -6q-4 4 -3 113q3 107 14.5 120.5t70.5 -22.5q24 -14 89.5 -35.5t85.5 -21.5q17 0 31 7.5t23.5 20t15 30.5
t5.5 40q0 26 10 36z" />
    <glyph glyph-name="cent" unicode="&#xa2;" 
 />
    <glyph glyph-name="sterling" unicode="&#xa3;" horiz-adv-x="532" 
d="M361 758q33 18 57.5 16t61.5 -26q17 -11 26 -18.5t13 -14t4 -14.5q0 -37 -28 -21q-13 7 -29 25q-21 23 -30.5 27.5t-28.5 1.5q-24 -4 -40 -14q-11 -10 -21 -29t-16.5 -42.5t-6.5 -45.5l-2 -45l71 2q72 3 88 -9q9 -7 10 -11.5t-4 -10.5q-9 -9 -35 0q-23 9 -58 9t-55 -8
q-21 -7 -21 -26q0 -11 -7.5 -37.5t-18 -53.5t-18.5 -39q-12 -17 -11 -26t14 -14q13 -4 25 -15q18 -13 43 -27l30 -17l34 16q33 16 54 40q25 30 28 19l2 -15q0 -22 -35 -56q-24 -24 -36 -29.5t-41 -5.5q-42 0 -58 16q-37 33 -78.5 43t-82.5 -5q-26 -9 -38 1q-25 21 -2 44
q22 20 63 20q35 0 48 15q13 13 25 47.5t14 63.5l2 29l-55 -2q-54 -3 -111 -18q-67 -16 -79.5 -18t-16.5 3q-3 5 4.5 9.5t21 9t14.5 4.5q75 29 161 37q50 4 60.5 15.5t16.5 67.5q5 45 24.5 80.5t47.5 51.5z" />
    <glyph glyph-name="section" unicode="&#xa7;" 
 />
    <glyph glyph-name="questiondown" unicode="&#xbf;" 
 />
    <glyph glyph-name="Agrave" unicode="&#xc0;" 
 />
    <glyph glyph-name="Aacute" unicode="&#xc1;" 
 />
    <glyph glyph-name="Acircumflex" unicode="&#xc2;" 
 />
    <glyph glyph-name="Adieresis" unicode="&#xc4;" 
 />
    <glyph glyph-name="Ccedilla" unicode="&#xc7;" 
 />
    <glyph glyph-name="Egrave" unicode="&#xc8;" 
 />
    <glyph glyph-name="Eacute" unicode="&#xc9;" 
 />
    <glyph glyph-name="Ecircumflex" unicode="&#xca;" 
 />
    <glyph glyph-name="Edieresis" unicode="&#xcb;" 
 />
    <glyph glyph-name="Icircumflex" unicode="&#xce;" 
 />
    <glyph glyph-name="Idieresis" unicode="&#xcf;" 
 />
    <glyph glyph-name="Ntilde" unicode="&#xd1;" 
 />
    <glyph glyph-name="Oacute" unicode="&#xd3;" 
 />
    <glyph glyph-name="Ocircumflex" unicode="&#xd4;" 
 />
    <glyph glyph-name="Odieresis" unicode="&#xd6;" 
 />
    <glyph glyph-name="Ugrave" unicode="&#xd9;" 
 />
    <glyph glyph-name="Uacute" unicode="&#xda;" 
 />
    <glyph glyph-name="Ucircumflex" unicode="&#xdb;" 
 />
    <glyph glyph-name="Udieresis" unicode="&#xdc;" 
 />
    <glyph glyph-name="germandbls" unicode="&#xdf;" 
 />
    <glyph glyph-name="agrave" unicode="&#xe0;" 
 />
    <glyph glyph-name="aacute" unicode="&#xe1;" 
 />
    <glyph glyph-name="acircumflex" unicode="&#xe2;" 
 />
    <glyph glyph-name="adieresis" unicode="&#xe4;" 
 />
    <glyph glyph-name="ccedilla" unicode="&#xe7;" 
 />
    <glyph glyph-name="egrave" unicode="&#xe8;" 
 />
    <glyph glyph-name="eacute" unicode="&#xe9;" 
 />
    <glyph glyph-name="ecircumflex" unicode="&#xea;" 
 />
    <glyph glyph-name="edieresis" unicode="&#xeb;" 
 />
    <glyph glyph-name="icircumflex" unicode="&#xee;" 
 />
    <glyph glyph-name="idieresis" unicode="&#xef;" 
 />
    <glyph glyph-name="oacute" unicode="&#xf3;" 
 />
    <glyph glyph-name="ocircumflex" unicode="&#xf4;" 
 />
    <glyph glyph-name="odieresis" unicode="&#xf6;" 
 />
    <glyph glyph-name="ugrave" unicode="&#xf9;" 
 />
    <glyph glyph-name="uacute" unicode="&#xfa;" 
 />
    <glyph glyph-name="ucircumflex" unicode="&#xfb;" 
 />
    <glyph glyph-name="udieresis" unicode="&#xfc;" 
 />
    <glyph glyph-name="eogonek" unicode="&#x119;" 
 />
    <glyph glyph-name="quoteright" unicode="&#x2019;" horiz-adv-x="99" 
d="M57 772q20 31 33 13q4 -8 -7 -58q-6 -25 -22 -97q-4 -21 -14.5 -43t-20.5 -33.5t-15 -6.5q-5 3 7 39q12 34 12 70q1 76 27 116z" />
    <glyph glyph-name="quotedblleft" unicode="&#x201c;" horiz-adv-x="339" 
d="M99 273q6 12 11.5 15t15.5 -1q25 -7 35.5 -22t10.5 -42q0 -98 -113 -157q-48 -25 -49 -13q-1 11 42 40q23 16 41.5 35t28.5 38t10 35q0 12 -21 32q-14 13 -16 19.5t4 20.5zM280 262q22 24 41 5q21 -22 -1.5 -75t-64.5 -81q-56 -37 -53 -19q2 13 38 52q25 28 30 39.5
t2 33.5q-4 31 8 45z" />
    <glyph glyph-name="quotedblright" unicode="&#x201d;" horiz-adv-x="295" 
d="M64 750q20 18 34 18q35 0 4 -34l-12 -12q-48 -44 -39 -85q1 -11 16.5 -21t39.5 -18q23 -6 5 -14q-14 -6 -39 -6q-24 0 -34 3.5t-17 13.5q-20 29 -7 76.5t49 78.5zM219 744q26 19 45 21t21 -14q3 -14 -25 -26q-37 -15 -48 -47q-11 -29 14 -35h3q25 -4 30 -19q2 -8 -7 -11
q-15 -6 -47 2t-39 19q-11 17 7 54t46 56z" />
    <glyph glyph-name="bullet" unicode="&#x2022;" 
 />
    <glyph glyph-name="Euro" unicode="&#x20ac;" horiz-adv-x="524" 
d="M419 760q47 7 58 6t25 -12q17 -13 12 -28q-5 -12 -14.5 -13t-20 9t-49 8t-66.5 -14q-43 -19 -78 -49t-51 -61q-18 -38 -15 -43q7 -5 106 -5q73 0 87 -2.5t16 -15.5q3 -19 -11.5 -23t-39.5 8q-26 13 -92 13q-57 0 -75.5 -10.5t-18.5 -43.5v-28l91 6q57 3 75 2t25 -9
q10 -12 5 -18q-4 -4 -95 -3q-23 1 -36 1t-26.5 -1t-20 -2.5t-13 -5.5t-8.5 -8t-3.5 -12.5t-1 -17t1.5 -22.5t2.5 -21.5t3.5 -14.5t6.5 -13t9.5 -11.5t15 -14.5q23 -21 57 -34t65 -13q35 1 87 27.5t59 46.5q3 10 7.5 12.5t8 -2.5t3.5 -15q0 -21 -19 -42t-51 -36
q-38 -17 -109 -18.5t-89 14.5q-16 13 -23.5 13t-29.5 25.5t-33 45.5t-11 58t-9 42q-7 6 -63 -8q-56 -15 -61 -9q-11 11 24 29q22 10 47 15q51 10 58.5 12.5t13.5 27.5t2 32q-4 6 -33 2.5t-39 -10.5q-10 -8 -28.5 -8.5t-20.5 6.5q-2 5 8 13t25 14.5t26 6.5q15 0 44 11t41 20
q12 10 12 24t23 50q18 28 50.5 53t72.5 42t81 22z" />
  </font>
</defs>
</svg>
